<svg t="1590053704930" class="icon" viewBox="0 0 1024 1024" version="1.1" xmlns="http://www.w3.org/2000/svg" p-id="1740" width="600" height="600"><path d="M512 1024c282.752 0 512-229.248 512-512S794.752 0 512 0 0 229.248 0 512s229.248 512 512 512z m0-85.333333C276.352 938.666667 85.333333 747.648 85.333333 512S276.352 85.333333 512 85.333333s426.666667 191.018667 426.666667 426.666667-191.018667 426.666667-426.666667 426.666667z" fill="#4D84DB" p-id="1741"></path><path d="M783.530667 240.469333l-173.866667 347.733334a48 48 0 0 1-21.461333 21.461333l-347.733334 173.866667 173.866667-347.733334c4.650667-9.301333 12.16-16.810667 21.461333-21.461333l347.733334-173.866667z" fill="#E01313" p-id="1742"></path><path d="M490.666667 64v42.666667a21.333333 21.333333 0 1 0 42.666666 0v-42.666667a21.333333 21.333333 0 1 0-42.666666 0zM490.666667 917.333333v42.666667a21.333333 21.333333 0 1 0 42.666666 0v-42.666667a21.333333 21.333333 0 0 0-42.666666 0zM106.282667 490.282667l-42.666667 0.768a21.333333 21.333333 0 1 0 0.768 42.666666l42.666667-0.768a21.333333 21.333333 0 0 0-0.768-42.666666zM959.616 490.282667l-42.666667 0.768a21.333333 21.333333 0 1 0 0.768 42.666666l42.666667-0.768a21.333333 21.333333 0 0 0-0.768-42.666666z" fill="#4D84DB" p-id="1743"></path><path d="M512 512m-85.333333 0a85.333333 85.333333 0 1 0 170.666666 0 85.333333 85.333333 0 1 0-170.666666 0Z" fill="#FFFFFF" p-id="1744"></path><path d="M512 512m-42.666667 0a42.666667 42.666667 0 1 0 85.333334 0 42.666667 42.666667 0 1 0-85.333334 0Z" fill="#E01313" p-id="1745"></path></svg>