<svg t="1590052349297" class="icon" viewBox="0 0 1024 1024" version="1.1" xmlns="http://www.w3.org/2000/svg" p-id="1093" width="600" height="600"><path d="M486.178 484.678h-243.4c-70.5 0-127.9-57.4-127.9-127.9v-115.5c0-70.5 57.4-127.9 127.9-127.9h115.5c70.5 0 127.9 57.4 127.9 127.9v243.4z m-243.4-281.7c-21.2 0-38.4 17.2-38.4 38.4v115.4c0 21.2 17.2 38.4 38.4 38.4h153.9v-153.9c0-21.2-17.2-38.4-38.4-38.4h-115.5zM358.278 905.778h-115.5c-70.5 0-127.9-57.4-127.9-127.8v-115.6c0-70.5 57.4-127.8 127.9-127.8h243.4v243.4c0 70.4-57.4 127.8-127.9 127.8z m-115.5-281.7c-21.2 0-38.4 17.2-38.4 38.3v115.5c0 21.2 17.2 38.3 38.4 38.3h115.5c21.2 0 38.4-17.2 38.4-38.3v-153.8h-153.9z" fill="#3F85FF" p-id="1094"></path><path d="M779.478 484.678h-243.4v-243.4c0-70.5 57.4-127.9 127.8-127.9h115.5c70.5 0 127.8 57.4 127.8 127.9v115.5c0.1 70.5-57.3 127.9-127.7 127.9z m-153.9-89.5h153.9c21.2 0 38.3-17.2 38.3-38.4v-115.5c0-21.2-17.2-38.4-38.3-38.4h-115.6c-21.2 0-38.3 17.2-38.3 38.4v153.9z" fill="#A4BEEC" p-id="1095"></path><path d="M779.478 905.778h-115.6c-70.5 0-127.8-57.4-127.8-127.8v-243.4h243.4c70.5 0 127.8 57.4 127.8 127.8v115.5c0 70.5-57.4 127.9-127.8 127.9z m-153.9-281.7v153.9c0 21.2 17.2 38.3 38.3 38.3h115.5c21.2 0 38.3-17.2 38.3-38.3v-115.6c0-21.2-17.2-38.3-38.3-38.3h-153.8z" fill="#3F85FF" p-id="1096"></path></svg>