<svg t="1590573461008" class="icon" viewBox="0 0 1024 1024" version="1.1" xmlns="http://www.w3.org/2000/svg" p-id="1644" width="600" height="600"><path d="M782.568727 586.379636c126.138182 99.653818 213.271273 231.098182 218.158546 361.192728 0 20.154182-7.307636 39.424-19.735273 51.851636-14.475636 16.384-34.583273 24.576-55.854545 24.576H98.862545c-20.48 0-39.796364-8.331636-53.992727-22.574545-14.289455-14.429091-21.597091-33.698909-21.550545-55.389091 4.421818-133.585455 98.862545-270.894545 233.658182-371.712-49.152-66.187636-93.277091-165.376-93.277091-228.817455C163.700364 154.810182 320.093091 0 512 0c191.627636 0 348.299636 155.229091 348.299636 345.506909 0 72.005818-28.904727 151.738182-80.896 218.344727l-10.053818 12.334546 13.218909 10.24z m121.856 332.986182c-18.245818-104.261818-109.195636-217.367273-231.936-297.565091l-51.153454-33.419636 45.800727-40.448c63.581091-56.180364 100.072727-136.378182 100.072727-202.426182C767.208727 206.848 652.427636 93.090909 512 93.090909 371.339636 93.090909 256.791273 206.429091 256.791273 345.506909c0 51.2 57.111273 163.095273 100.724363 202.984727l44.311273 40.634182-50.408727 32.721455C223.418182 704.977455 129.815273 824.785455 117.620364 930.909091h788.573091l-1.768728-11.543273z" fill="#4D84DB" p-id="1645"></path><path d="M395.636364 442.181818a116.363636 116.363636 0 1 0 0-232.727273 116.363636 116.363636 0 0 0 0 232.727273z m0-46.545454a69.818182 69.818182 0 1 1 0-139.636364 69.818182 69.818182 0 0 1 0 139.636364z" fill="#666666" p-id="1646"></path><path d="M628.363636 442.181818a116.363636 116.363636 0 1 0 0-232.727273 116.363636 116.363636 0 0 0 0 232.727273z m0-46.545454a69.818182 69.818182 0 1 1 0-139.636364 69.818182 69.818182 0 0 1 0 139.636364z" fill="#666666" p-id="1647"></path><path d="M465.454545 302.545455v46.545454h93.09091v-46.545454zM209.454545 349.090909h93.09091a23.272727 23.272727 0 0 0 0-46.545454H209.454545a23.272727 23.272727 0 0 0 0 46.545454zM721.454545 349.090909h93.09091a23.272727 23.272727 0 1 0 0-46.545454h-93.09091a23.272727 23.272727 0 1 0 0 46.545454z" fill="#666666" p-id="1648"></path><path d="M651.636364 861.090909h93.090909a46.545455 46.545455 0 0 0 0-93.090909h-93.090909a46.545455 46.545455 0 0 0 0 93.090909z" fill="#4D84DB" p-id="1649"></path></svg>