<svg t="1590033317172" class="icon" viewBox="0 0 1024 1024" version="1.1" xmlns="http://www.w3.org/2000/svg" p-id="2003" width="600" height="600"><path d="M512 512m-512 0a512 512 0 1 0 1024 0 512 512 0 1 0-1024 0Z" fill="#E52425" p-id="2004"></path><path d="M633.65 383.292c75.705-16.713 58.991 58.992 58.991 60.958 0 8.848 6.881 16.714 16.714 16.714 8.846 0 15.731-6.883 16.714-14.747v-1.967c9.387-83.773-44.881-95.402-74.354-95.673-4.105 12.204-10.611 23.83-19.209 34.651 0.38 0.03 0.76 0.064 1.144 0.064zM287.617 424.341c-26.664 27.944-43.306 51.37-43.306 51.37-52.108 69.807-45.227 123.881-45.227 123.881 12.782 119.947 138.627 152.393 235.962 160.261 102.251 7.863 240.876-36.379 283.155-126.833 42.277-90.449-34.41-125.846-57.021-129.777-24.577-4.917-12.78-17.699-12.78-17.699s23.595-40.311-4.921-68.821c-7.973-7.974-18.495-12.096-30.007-13.712-40.301 35.157-104.994 57.955-177.941 57.955-56.87-0.002-108.721-13.86-147.914-36.625z m340.135 162.472c0 68.819-82.591 133.709-184.84 138.631-102.251 4.911-184.837-47.194-184.837-116.019s82.586-123.881 184.837-128.798c101.267-4.916 183.858 38.344 184.84 106.186z" fill="#FFFFFF" p-id="2005"></path><path d="M358.359 682.184c59.974 33.427 121.914 13.762 153.377-27.534 31.46-41.296 12.777-140.593-90.454-127.815-102.251 11.803-90.451 109.138-90.451 109.138s-0.985 30.473 27.528 46.211z m84.553-93.407c7.866-4.917 15.731-3.929 18.681 1.964 3.935 5.904 0.985 14.75-4.916 19.666-5.899 4.916-14.747 3.934-17.696-1.965-3.935-5.898-2.95-14.749 3.931-19.665z m-48.176 13.767c21.63-1.97 36.379 10.815 36.379 27.528 0 16.714-15.731 31.463-34.412 33.428-18.681 1.964-34.412-9.833-34.412-25.564 0-16.714 12.782-33.427 32.445-35.392zM696.571 269.244c-19.998-5-40.622-6.231-56.733-6.003 8.393 13.008 13.887 26.989 15.975 41.609 26.218 1.484 76.25 13.116 104.666 61.729 20.647 46.209 8.851 77.672 7.868 82.588 0 0-4.916 11.797-4.916 23.597 0 13.762 10.815 31.46 24.582 31.46 10.814 0 20.647 7.866 23.595-11.797 39.325-134.697-49.165-207.452-115.037-223.183z" fill="#FFFFFF" p-id="2006"></path><path d="M633.65 349.865c-8.845 0-16.713 6.881-16.713 16.713 0 8.466 7.202 16.009 15.568 16.65 8.598-10.821 15.104-22.447 19.209-34.651-10.651-0.097-18.064 1.288-18.064 1.288zM522.549 421.639c-32.442 9.83-24.577-4.917-19.663-30.481 0-30.478-9.83-80.619-97.335-51.125-45.694 16.098-88.091 53.033-117.934 84.309 39.192 22.765 91.043 36.624 147.913 36.624 72.947 0 137.641-22.797 177.941-57.955-39.586-5.558-90.922 18.628-90.922 18.628zM613.003 265.312l-2.503 0.469c-9.827 2.949-18.14 9.361-18.14 21.161 0 13.764 10.815 24.579 24.577 24.579 0 0 13.762-1.967 22.611-5.898 2.118-0.707 8.015-1.241 16.264-0.774-2.088-14.62-7.582-28.601-15.975-41.609-12.4 0.176-22.13 1.217-26.834 2.072z" fill="#FFFFFF" opacity=".4" p-id="2007"></path></svg>